<svg width="58" height="54" viewBox="0 0 58 54" fill="none" xmlns="http://www.w3.org/2000/svg">
<path d="M12.0837 23.175C12.0837 21.2663 12.0846 19.9024 12.1784 18.8332C12.2711 17.7772 12.4483 17.1082 12.7422 16.5713L10.5889 15.5498C10.0925 16.4568 9.87466 17.4548 9.76977 18.65C9.66605 19.832 9.66699 21.3034 9.66699 23.175H12.0837ZM12.0837 25.875V23.175H9.66699V25.875H12.0837ZM9.66699 25.875V37.125H12.0837V25.875H9.66699ZM9.66699 37.125V41.4306H12.0837V37.125H9.66699ZM9.66699 41.4306C9.66699 43.335 12.1399 44.2885 13.5862 42.9421L11.8774 41.3509C11.8844 41.3444 11.9099 41.328 11.9465 41.3221C11.9764 41.3172 11.9972 41.3221 12.0091 41.3266C12.021 41.3314 12.0393 41.3415 12.0568 41.3647C12.0781 41.3928 12.0837 41.4214 12.0837 41.4306H9.66699ZM13.5862 42.9421L18.2719 38.5794L16.5631 36.9884L11.8774 41.3509L13.5862 42.9421ZM35.5253 36H19.1263V38.25H35.5253V36ZM42.6182 35.3869C42.0414 35.6605 41.3229 35.8254 40.1888 35.9118C39.0404 35.9991 37.5754 36 35.5253 36V38.25C37.5355 38.25 39.116 38.2509 40.3855 38.1544C41.6692 38.0567 42.7413 37.8538 43.7154 37.3916L42.6182 35.3869ZM45.2585 32.9287C44.6792 33.9871 43.755 34.8475 42.6182 35.3869L43.7154 37.3916C45.3068 36.6367 46.6009 35.4319 47.4117 33.9502L45.2585 32.9287ZM45.917 26.325C45.917 28.2337 45.916 29.5976 45.8223 30.6668C45.7295 31.7227 45.5523 32.3917 45.2585 32.9287L47.4117 33.9502C47.9081 33.0433 48.1261 32.0452 48.231 30.85C48.3346 29.668 48.3337 28.1965 48.3337 26.325H45.917ZM45.917 23.175V26.325H48.3337V23.175H45.917ZM45.2585 16.5713C45.5523 17.1082 45.7295 17.7772 45.8223 18.8332C45.916 19.9024 45.917 21.2663 45.917 23.175H48.3337C48.3337 21.3034 48.3346 19.832 48.231 18.65C48.1261 17.4548 47.9081 16.4568 47.4117 15.5498L45.2585 16.5713ZM42.6182 14.1131C43.755 14.6524 44.6792 15.5129 45.2585 16.5713L47.4117 15.5498C46.6009 14.0681 45.3068 12.8633 43.7154 12.1083L42.6182 14.1131ZM35.5253 13.5C37.5754 13.5 39.0404 13.5009 40.1888 13.5882C41.3229 13.6745 42.0414 13.8395 42.6182 14.1131L43.7154 12.1083C42.7413 11.6462 41.6692 11.4433 40.3855 11.3457C39.116 11.2491 37.5355 11.25 35.5253 11.25V13.5ZM22.4753 13.5H35.5253V11.25H22.4753V13.5ZM15.3825 14.1131C15.9592 13.8395 16.6777 13.6745 17.8119 13.5882C18.9603 13.5009 20.4252 13.5 22.4753 13.5V11.25C20.4651 11.25 18.8847 11.2491 17.6151 11.3457C16.3315 11.4433 15.2595 11.6462 14.2853 12.1083L15.3825 14.1131ZM12.7422 16.5713C13.3214 15.5129 14.2457 14.6524 15.3825 14.1131L14.2853 12.1083C12.6938 12.8633 11.3998 14.0681 10.5889 15.5498L12.7422 16.5713ZM18.2719 38.5794C18.4985 38.3686 18.8059 38.25 19.1263 38.25V36C18.1649 36 17.2429 36.3555 16.5631 36.9884L18.2719 38.5794Z" fill="#4E586E"/>
<path d="M20.542 21.375H37.4587Z" fill="#4E586E"/>
<path d="M20.542 21.375H37.4587" stroke="#4E586E" stroke-width="3" stroke-linecap="round" stroke-linejoin="round"/>
<path d="M20.542 28.125H32.6253Z" fill="#4E586E"/>
<path d="M20.542 28.125H32.6253" stroke="#4E586E" stroke-width="3" stroke-linecap="round" stroke-linejoin="round"/>
</svg>
