<svg width="800" height="800" viewBox="0 0 800 800" fill="none" xmlns="http://www.w3.org/2000/svg">
<path d="M776.378 385.576V412.92C776.378 423.335 771.659 433.751 762.21 441.933C652.718 536.794 543.186 631.617 433.704 726.479C424.473 734.477 413.537 738.589 400.536 738.589V711.246C413.537 711.246 424.473 707.133 433.704 699.136C543.186 604.273 652.714 509.446 762.21 414.591C771.659 406.407 776.378 395.995 776.378 385.576Z" fill="#4B4D72"/>
<path d="M23.624 412.787V410.053V408.686V405.951V403.217V401.85V399.115V396.381V395.014V392.279V389.545V388.178V385.443C23.624 396.933 28.8592 408.344 38.4975 416.708C146.661 510.508 254.942 604.205 363.155 697.974C373.313 706.771 385.608 710.838 400.54 711.25V738.594C385.612 738.182 373.313 734.114 363.155 725.318C254.941 631.549 146.66 537.852 38.4967 444.052C28.8584 435.689 23.624 424.277 23.624 412.787Z" fill="#4B4D72"/>
<path d="M399.052 59.8447C411.757 59.8447 424.478 64.0338 434.166 72.4205C543.501 167.099 652.838 261.777 762.149 356.472C781.087 372.874 781.13 398.201 762.21 414.595C652.718 509.454 543.187 604.279 433.704 699.139C424.473 707.138 413.538 711.25 400.537 711.25C385.608 710.838 373.309 706.771 363.152 697.974C254.94 604.205 146.659 510.508 38.4946 416.708C23.1977 403.436 18.9946 382.481 29.2016 365.731C32.2633 360.701 35.9743 356.489 40.5024 352.567C148.4 259.168 256.268 165.745 364.145 72.3189C373.752 64.0057 386.395 59.8447 399.052 59.8447Z" fill="#28293D"/>
<path d="M221.4 355.429C221.391 355.09 221.387 354.75 221.387 354.411V341.286C221.387 341.625 221.391 341.966 221.4 342.304V355.429ZM578.863 355.495V342.37L578.864 341.853V354.978L578.863 355.495Z" fill="#E8444D"/>
<path d="M221.561 345.058V358.183C221.561 357.268 221.456 356.346 221.399 355.428V342.303C221.459 343.223 221.561 344.143 221.561 345.058ZM578.863 355.495C578.682 356.498 578.506 357.517 578.506 358.529V345.404C578.506 344.391 578.682 343.373 578.863 342.37C578.863 346.307 579.216 351.574 578.863 355.495Z" fill="#E8444D"/>
<path d="M221.561 345.058V358.183C221.561 359.331 221.398 360.465 220.785 361.566V348.441C221.398 347.341 221.561 346.206 221.561 345.058Z" fill="#E8444D"/>
<path d="M221.336 342.304H221.4C221.534 344.378 221.888 346.464 220.786 348.442V342.379C220.905 342.347 221.027 342.325 221.145 342.311C221.209 342.307 221.272 342.304 221.336 342.304ZM578.467 358.139V345.014C578.467 346.175 578.618 347.323 579.215 348.443V361.568C578.619 360.45 578.467 359.3 578.467 358.139ZM300.006 298.606C266.327 305.614 241.316 333.546 241.277 363.482V350.357C241.316 320.421 266.327 292.489 300.006 285.481C305.166 284.407 310.213 283.718 315.141 283.411C317.113 283.288 319.066 283.229 321 283.229C341.652 283.229 360.155 290.191 376.418 303.876C381.356 308.028 386.158 312.298 391.032 316.512C394.298 319.333 397.146 320.733 400.012 320.733C402.927 320.733 405.861 319.287 409.27 316.416C412.087 314.043 414.824 311.597 417.584 309.17V322.299C414.826 324.725 412.089 327.171 409.27 329.545C405.862 332.416 402.927 333.862 400.012 333.862C397.146 333.862 394.298 332.462 391.032 329.641C386.158 325.427 381.355 321.157 376.418 317.005C360.155 303.319 341.652 296.357 321 296.357C319.68 296.357 318.348 296.386 317.012 296.443C311.493 296.675 305.823 297.395 300.006 298.606ZM417.584 322.295V321.955V321.777V321.411V321.032V320.651V320.275V319.908V319.557V318.804V317.571V316.278V314.949V313.605V312.276V310.984V309.753V309.167C422.755 304.615 427.997 300.128 433.961 296.29C447.337 287.679 463.624 283.435 479.909 283.435C498.708 283.435 517.504 289.091 531.816 300.218C549.466 313.935 558.223 331.078 558.693 350.446V363.571C558.22 344.202 549.464 327.058 531.816 313.343C517.504 302.215 498.707 296.559 479.909 296.559C463.624 296.559 447.34 300.803 433.961 309.415C427.998 313.255 422.755 317.742 417.584 322.295ZM221.559 357.337V370.461C221.559 369.297 221.392 368.146 220.785 367.024V353.899C221.39 355.021 221.559 356.171 221.559 357.337Z" fill="#E8444D"/>
<path d="M221.559 357.337V370.462C221.559 371.357 221.46 372.26 221.385 373.161V360.036C221.46 359.135 221.559 358.232 221.559 357.337Z" fill="#E8444D"/>

<path class='likePath' d="M321.002 283.229C341.652 283.229 360.155 290.191 376.419 303.874C381.356 308.026 386.159 312.296 391.034 316.511C394.298 319.331 397.148 320.732 400.014 320.732C402.929 320.732 405.863 319.286 409.274 316.415C417.367 309.589 424.818 302.175 433.959 296.289C447.336 287.679 463.623 283.434 479.907 283.434C498.707 283.434 517.502 289.09 531.815 300.218C549.465 313.936 558.221 331.079 558.692 350.448C558.471 370.594 550.512 386.907 534.934 400.363C490.659 438.603 446.321 476.78 402.066 515.033C401.205 515.78 400.558 516.167 399.898 516.167C399.261 516.167 398.612 515.807 397.753 515.06C353.598 476.725 309.371 438.451 265.159 400.158C249.687 386.757 241.716 370.558 241.291 351.621C240.616 321.21 265.854 292.586 300.009 285.478C307.232 283.976 314.234 283.229 321.002 283.229Z" fill="#28293D"/>

<path d="M241.278 363.549V350.424C241.278 350.822 241.282 351.221 241.291 351.621C241.718 370.559 249.688 386.758 265.16 400.159C309.371 438.453 353.597 476.727 397.754 515.061C398.615 515.809 399.263 516.168 399.899 516.168C400.559 516.168 401.207 515.781 402.067 515.035C446.324 476.781 490.661 438.603 534.935 400.364C550.512 386.909 558.473 370.595 558.693 350.449V363.574C558.473 383.72 550.513 400.034 534.935 413.489C490.661 451.729 446.322 489.906 402.067 528.16C401.207 528.907 400.559 529.293 399.899 529.293C399.263 529.293 398.614 528.934 397.754 528.186C353.599 489.852 309.372 451.578 265.16 413.284C249.688 399.883 241.717 383.685 241.291 364.747C241.283 364.348 241.279 363.948 241.278 363.549Z" fill="#E8444D"/>
<path d="M578.863 342.369C578.498 344.385 578.158 346.463 579.213 348.441V359.96C577.48 363.812 577.529 367.972 576.377 371.944C571.778 387.792 562.691 401.4 549.375 412.896C502.401 453.481 455.385 494.035 408.375 534.584C405.509 537.057 402.728 538.29 399.945 538.29C397.134 538.29 394.317 537.033 391.412 534.519C344.564 493.968 297.725 453.404 250.897 412.829C234.021 398.201 223.917 380.701 221.384 360.033C221.555 357.96 221.855 355.881 220.785 353.897V348.442C221.888 346.462 221.533 344.379 221.399 342.304C221.118 330.8 225.548 320.304 231.706 310.374C241.865 293.972 256.766 281.614 276.027 273.347C289.673 267.493 304.136 264.522 319.138 264.522C321.259 264.522 323.394 264.583 325.537 264.701C348.602 265.976 369.015 273.158 386.38 286.593C390.043 289.423 393.537 292.376 397.033 295.337C398.453 296.534 399.212 297.122 399.973 297.122C400.735 297.122 401.502 296.532 402.943 295.377C411.139 288.796 419.008 281.902 428.851 277.024C442.75 270.137 457.495 266.022 473.549 265.124C475.982 264.987 478.393 264.919 480.772 264.919C504.75 264.917 526.095 271.832 544.779 285.345C562.656 298.276 573.711 314.964 578.224 334.804C578.788 337.271 578.88 339.827 578.863 342.369ZM534.934 400.362C550.511 386.908 558.473 370.594 558.693 350.447C558.22 331.079 549.464 313.935 531.816 300.219C517.504 289.093 498.707 283.436 479.909 283.436C463.624 283.436 447.34 287.679 433.961 296.292C424.82 302.177 417.37 309.591 409.274 316.417C405.864 319.288 402.929 320.734 400.015 320.734C397.148 320.734 394.301 319.334 391.034 316.513C386.16 312.299 381.356 308.03 376.42 303.877C360.156 290.19 341.654 283.229 321.002 283.229C314.234 283.229 307.231 283.978 300.008 285.483C265.852 292.59 240.616 321.213 241.292 351.625C241.717 370.562 249.687 386.762 265.159 400.161C309.37 438.456 353.596 476.73 397.753 515.063C398.614 515.811 399.26 516.17 399.897 516.17C400.558 516.17 401.209 515.783 402.066 515.037C446.324 476.78 490.659 438.602 534.934 400.362Z" fill="#FDFDFD"/>
<path d="M578.602 342.326C578.686 342.346 578.775 342.359 578.863 342.37C578.948 342.379 579.034 342.382 579.115 342.382L579.215 342.381V348.443C578.159 346.465 578.499 344.386 578.602 342.326ZM220.785 353.899C221.855 355.882 221.559 357.963 221.384 360.035L221.077 360.057L220.785 359.962V353.899Z" fill="#E8444D"/>
<path d="M221.384 360.036V373.161L221.077 373.181V360.056L221.384 360.036ZM221.077 360.056V373.181L220.785 373.086V359.961L221.077 360.056Z" fill="#E8444D"/>
<path d="M579.215 359.961V373.086C577.486 376.937 577.533 381.099 576.38 385.07C571.781 400.918 562.693 414.526 549.378 426.021C502.403 466.606 455.388 507.16 408.377 547.71C405.512 550.183 402.731 551.416 399.947 551.416C397.137 551.416 394.319 550.159 391.415 547.645C344.566 507.093 297.727 466.53 250.899 425.955C234.024 411.326 223.919 393.827 221.386 373.159V360.034C223.921 380.702 234.025 398.202 250.899 412.83C297.728 453.404 344.567 493.967 391.415 534.52C394.322 537.034 397.136 538.291 399.947 538.291C402.73 538.291 405.511 537.057 408.377 534.584C455.389 494.036 502.404 453.484 549.378 412.896C562.695 401.398 571.781 387.792 576.38 371.944C577.529 367.975 577.485 363.814 579.215 359.961Z" fill="#4B4D72"/>
</svg>
