<?xml version="1.0" encoding="utf-8"?>
<!-- Generator: Adobe Illustrator 21.0.0, SVG Export Plug-In . SVG Version: 6.00 Build 0)  -->
<svg version="1.1" id="Layer_1" xmlns="http://www.w3.org/2000/svg" xmlns:xlink="http://www.w3.org/1999/xlink" x="0px" y="0px"
	 viewBox="0 0 1000 1000" style="enable-background:new 0 0 1000 1000;" xml:space="preserve">
<g id="XMLID_12_">
	<path id="XMLID_14_" d="M500,1000L292.5,640.5L49.1,781.1L211.3,500L49.1,218.9l243.4,140.5L500,0l207.5,359.5l243.4-140.5
		L788.7,500l162.3,281.1L707.5,640.5L500,1000z M323.5,622.6L500,928.3l176.5-305.7L500,520.7L323.5,622.6z M725.5,609.5L853,683.1
		l-85-147.2L725.5,609.5z M232,535.9l-85,147.2l127.5-73.6L232,535.9z M535.9,500l158.5,91.5l52.8-91.5l-52.8-91.5L535.9,500z
		 M252.7,500l52.8,91.5L464.1,500l-158.5-91.5L252.7,500z M323.5,377.4L500,479.3l176.5-101.9L500,71.7L323.5,377.4z M725.5,390.5
		l42.5,73.6l85-147.2L725.5,390.5z M147,316.9l85,147.2l42.5-73.6L147,316.9z" fill='none'/>
</g>
</svg>
