<svg width="40" height="40" viewBox="0 0 40 40" fill="none" xmlns="http://www.w3.org/2000/svg">
<path d="M16.2871 7.13311C17.2204 6.89311 18.1154 7.54311 18.2971 8.48978C18.4637 9.35144 17.8587 10.1631 17.0121 10.3898C14.8991 10.9499 12.986 12.0924 11.4908 13.6871C9.99564 15.2817 8.97856 17.2644 8.5555 19.409C8.13244 21.5536 8.32041 23.774 9.098 25.817C9.87558 27.8599 11.2115 29.6434 12.9535 30.964C14.6954 32.2846 16.7734 33.0892 18.9505 33.2861C21.1275 33.4831 23.3161 33.0644 25.2668 32.0779C27.2175 31.0914 28.8518 29.5766 29.9834 27.7064C31.115 25.8361 31.6984 23.6855 31.6671 21.4998C31.6821 20.6664 32.3337 19.9248 33.1587 19.8331C34.1637 19.7214 35.0121 20.4514 35.0021 21.4614L35.0004 21.6664C35.0004 21.8448 34.9971 22.0214 34.9904 22.1998C34.9987 22.2907 34.9987 22.3822 34.9904 22.4731L34.9771 22.6764C34.7173 26.5265 32.9837 30.1284 30.1367 32.7333C27.2897 35.3381 23.5484 36.7456 19.6904 36.6631C16.0636 36.5882 12.5869 35.2016 9.90402 32.76C7.22117 30.3185 5.51399 26.9874 5.09867 23.3837C4.68335 19.78 5.58801 16.1479 7.64513 13.1601C9.70224 10.1722 12.7724 8.03104 16.2871 7.13311Z" fill="#4E586E"/>
<path d="M26.5502 22.9217C26.3544 23.9467 25.9208 24.9114 25.2842 25.7382C24.6476 26.5651 23.8259 27.231 22.8851 27.6824C21.9443 28.1338 20.9106 28.3582 19.8673 28.3374C18.824 28.3165 17.8002 28.0512 16.8781 27.5626C15.9561 27.074 15.1616 26.3758 14.5585 25.5242C13.9554 24.6726 13.5606 23.6914 13.4058 22.6594C13.251 21.6275 13.3406 20.5736 13.6673 19.5825C13.994 18.5915 14.5488 17.691 15.2869 16.9534C16.5369 15.703 18.2323 15.0004 20.0002 15C21.2502 15 22.1669 15.2667 23.3336 15.8834C23.3336 15.8834 23.5836 16.0334 23.7502 16.1667C23.5836 15.5834 23.3702 14.0067 23.3336 13.3334C23.3001 12.2031 23.2862 11.0724 23.2919 9.9417V4.93337C23.2919 4.0667 24.0119 3.3667 24.9002 3.3667C25.0719 3.3667 25.2436 3.39337 25.4086 3.4467L33.0286 6.2617C33.7719 6.50337 34.0236 6.64503 34.2702 6.85003C34.5169 7.05337 34.7002 7.30003 34.8202 7.59337C34.9419 7.8867 35.0002 8.16337 35.0002 8.92837V10.8617C35.0002 11.725 34.2619 12.4284 33.3752 12.4284C33.2026 12.428 33.031 12.4004 32.8669 12.3467L30.5686 11.6017L30.3169 11.5184C29.5886 11.285 29.2869 11.185 29.0036 11.085C28.7126 10.984 28.4267 10.8689 28.1469 10.74C28.0266 10.6846 27.9082 10.6251 27.7919 10.5617C27.6286 10.4784 27.3969 10.355 26.9236 10.1234L26.6669 10L26.6852 21.6667C26.6852 22.0917 26.6386 22.5117 26.5486 22.9217H26.5502Z" fill="#4E586E"/>
</svg>
